<?xml version="1.0" encoding="UTF-8" standalone="no"?>
<svg width="566px" height="393px" viewBox="0 0 566 393" version="1.1" xmlns="http://www.w3.org/2000/svg" xmlns:xlink="http://www.w3.org/1999/xlink">
    <!-- Generator: Sketch 3.8.3 (29802) - http://www.bohemiancoding.com/sketch -->
    <title>aggro-icon</title>
    <desc>Created with Sketch.</desc>
    <defs>
        <radialGradient cx="50%" cy="40.1785%" fx="50%" fy="40.1785%" r="86.6373435%" id="radialGradient-1">
            <stop stop-color="#D40000" offset="0%"></stop>
            <stop stop-color="#990707" offset="100%"></stop>
        </radialGradient>
    </defs>
    <g id="Page-1" stroke="none" stroke-width="1" fill="none" fill-rule="evenodd">
        <g id="Logo">
            <path d="M393.695639,4.12671644 C355.500569,9.50391985 326.60031,31.6986962 283.978667,31.8015359 C248.357391,31.887965 220.454188,9.59910127 187.720289,4.12671644 C88.8053042,-12.4162526 65.3595909,34.5245998 36.6238516,122.037902 C20.3783595,171.511455 -31.5027619,342.120328 27.4670606,382.967381 C87.2131069,424.353796 152.435782,310.490556 197.400451,293.148938 C236.232621,278.169352 319.781024,279.462506 358.063322,290.90944 C409.998548,306.440422 461.155341,404.78909 519.677979,391.84004 C599.811218,374.117697 552.595168,205.504352 540.47371,156.270393 C520.449786,74.9088744 492.706686,-9.7916522 393.695639,4.12671644 Z" id="Controller" fill="url(#radialGradient-1)"></path>
            <g id="Chain" transform="translate(283.587319, 157.361774) rotate(45.000000) translate(-283.587319, -157.361774) translate(172.067255, 46.863799)" fill="#FFFFFF">
                <path d="M137.012597,83.8388106 C135.312208,82.1517038 133.507173,80.6244327 131.641783,79.2203773 L114.306156,96.417148 C116.326127,97.6010524 118.241453,99.0180325 119.976579,100.738744 L120.854128,101.609008 C131.951813,112.620008 131.951813,130.532808 120.854128,141.543808 L73.496395,188.532489 C62.3982764,199.540904 44.3440225,199.540904 33.2472065,188.532489 L32.3696566,187.661793 C21.2758801,176.649501 21.2758801,158.737132 32.3696566,147.726994 L53.7955953,126.468845 C50.0756695,117.355625 48.3144907,107.641406 48.4682031,97.9513123 L15.3371122,130.822753 C-5.10055151,151.099484 -5.10055151,184.283272 15.3371122,204.56345 L16.2111884,205.431991 C36.6523259,225.707861 70.0956178,225.707861 90.5332815,205.431991 L137.886673,158.446756 C158.323468,138.169594 158.323468,104.98236 137.886673,84.7051976 L137.012597,83.8388106 L137.012597,83.8388106 Z" id="Shape"></path>
                <path d="M206.123233,15.2658472 C185.683398,-5.0117459 152.23837,-5.0117459 131.802008,15.2658472 L84.4494856,62.2549591 C64.0122561,82.5321214 64.0122561,115.715047 84.4494856,135.992641 L85.3235618,136.859889 C87.0239504,138.550443 88.828985,140.074698 90.6939413,141.4822 L108.029568,124.281121 C106.010031,123.097647 104.094272,121.681098 102.35958,119.960387 L101.48203,119.089692 C90.3847798,108.082569 90.3847798,90.1658918 101.48203,79.1544612 L148.839329,32.1705193 C159.937448,21.1590887 177.991268,21.1590887 189.088083,32.1705193 L189.965633,33.0373372 C201.059844,44.0483369 201.059844,61.9654454 189.965633,72.9725677 L168.540129,94.2307162 C172.25962,103.344367 174.021668,113.057725 173.867955,122.748249 L206.99948,89.8755164 C227.436276,69.5974925 227.436276,36.4149973 206.998178,16.1365425 L206.123233,15.2658472 Z" id="Shape"></path>
            </g>
        </g>
    </g>
</svg>